<?xml version="1.0" encoding="UTF-8"?>
<svg id="Layer_1" data-name="Layer 1" xmlns="http://www.w3.org/2000/svg" xmlns:xlink="http://www.w3.org/1999/xlink" viewBox="0 0 33.36 33.12">
  <defs>
    <style>
      .cls-1 {
        clip-path: url(#clippath);
      }

      .cls-2 {
        fill: none;
      }

      .cls-3 {
        fill: #000001;
      }

      .cls-4 {
        fill: #010103;
        fill-rule: evenodd;
      }
    </style>
    <clipPath id="clippath">
      <rect class="cls-2" width="33.36" height="33.12"/>
    </clipPath>
  </defs>
  <g class="cls-1">
    <path class="cls-3" d="m19.31,18.76c-.06.1-.1.23-.09.35l.08,1.68s.05.68.05.68c0,0,.55.32.56.33l2.94,1.69c.16.09.27.24.31.4.05.17.03.36-.06.52l-.43.74c-.29.51-.34,1.13-.14,1.68,0,0,1.68,3.97,1.67,3.97,0,0-2.55-1.5-2.54-1.5,0,0-1.31-3.28-1.31-3.28-.23-.56-.18-1.2.12-1.72l.39-.68c.19-.32.07-.74-.25-.93l-3.28-1.88s-.34-.19-.34-.19c0,0,0-.4,0-.41v-2.37c.01-.13.05-.26.11-.36.06-.11.15-.21.26-.27l2.05-1.19s.35-.19.35-.19c0,0,.33.19.33.19l3.27,1.9c.32.19.74.08.93-.25l.4-.68c.3-.53.83-.88,1.43-.96,0,0,3.49-.5,3.5-.5,0,0,2.56,1.45,2.57,1.45,0,0-4.27.54-4.27.54-.58.1-1.09.45-1.39.96l-.43.74c-.1.16-.25.27-.42.32-.17.04-.35.02-.51-.07l-2.93-1.7s-.56-.32-.56-.32c0,0-.6.29-.61.3l-1.5.77c-.11.06-.2.15-.26.26Z"/>
  </g>
</svg>